<?xml version="1.0" encoding="UTF-8" standalone="no"?>
<!-- Created with Inkscape (http://www.inkscape.org/) -->

<svg
   xmlns:dc="http://purl.org/dc/elements/1.1/"
   xmlns:cc="http://creativecommons.org/ns#"
   xmlns:rdf="http://www.w3.org/1999/02/22-rdf-syntax-ns#"
   xmlns:svg="http://www.w3.org/2000/svg"
   xmlns="http://www.w3.org/2000/svg"
   xmlns:sodipodi="http://sodipodi.sourceforge.net/DTD/sodipodi-0.dtd"
   xmlns:inkscape="http://www.inkscape.org/namespaces/inkscape"
   width="200mm"
   height="200mm"
   viewBox="0 0 200 200"
   version="1.1"
   id="svg8"
   inkscape:version="0.92.3 (2405546, 2018-03-11)"
   sodipodi:docname="logo2save.svg"
   inkscape:export-filename="C:\Users\tomes\Documents\GitHub\MolerGroup\static\images\logo2.png"
   inkscape:export-xdpi="96"
   inkscape:export-ydpi="96">
  <defs
     id="defs2" />
  <sodipodi:namedview
     id="base"
     pagecolor="#ffffff"
     bordercolor="#666666"
     borderopacity="0.52156863"
     inkscape:pageopacity="0.0"
     inkscape:pageshadow="2"
     inkscape:zoom="1.4"
     inkscape:cx="449.66415"
     inkscape:cy="358.51028"
     inkscape:document-units="mm"
     inkscape:current-layer="layer1"
     showgrid="false"
     inkscape:pagecheckerboard="false"
     showguides="false"
     inkscape:window-width="3840"
     inkscape:window-height="2028"
     inkscape:window-x="-16"
     inkscape:window-y="-16"
     inkscape:window-maximized="1" />
  <metadata
     id="metadata5">
    <rdf:RDF>
      <cc:Work
         rdf:about="">
        <dc:format>image/svg+xml</dc:format>
        <dc:type
           rdf:resource="http://purl.org/dc/dcmitype/StillImage" />
        <dc:title></dc:title>
      </cc:Work>
    </rdf:RDF>
  </metadata>
  <g
     inkscape:label="Layer 1"
     inkscape:groupmode="layer"
     id="layer1"
     transform="translate(0,-97)">
    <path
       style="opacity:1;fill:none;fill-opacity:0.81188121;stroke:#000000;stroke-width:2.64583333;stroke-miterlimit:4;stroke-dasharray:none;stroke-opacity:1"
       d="m 385.8612,251.77903 a 74.461303,74.461303 0 0 0 -74.46109,74.46161 74.461303,74.461303 0 0 0 74.46109,74.46109 74.461303,74.461303 0 0 0 40.29366,-11.8489 L 406.955,369.65298 a 49.430955,49.430955 0 0 1 -57.84815,-8.73694 49.430955,49.430955 0 0 1 0,-69.90581 49.430955,49.430955 0 0 1 69.90581,0 49.430955,49.430955 0 0 1 8.73022,57.84143 l 19.51302,19.51302 a 74.461303,74.461303 0 0 0 13.0669,-42.12404 74.461303,74.461303 0 0 0 -74.4616,-74.46161 z m -1.18494,31.95309 a 42.235315,42.235315 0 0 0 -30.48135,12.36617 42.235315,42.235315 0 0 0 0,59.72969 42.235315,42.235315 0 0 0 54.42872,4.4328 l 5.14387,5.14388 18.79679,18.79678 a 74.461303,74.461303 0 0 0 9.87588,-9.59166 l -18.94354,-18.94355 -5.1139,-5.1139 a 42.235315,42.235315 0 0 0 -4.45813,-54.45404 42.235315,42.235315 0 0 0 -29.24834,-12.36617 z"
       id="path4860"
       inkscape:connector-curvature="0" />
    <g
       id="g4705"
       style="fill:#000000;fill-opacity:1">
      <path
         inkscape:connector-curvature="0"
         id="path98"
         d="m -223.66499,190.19589 a 75.595236,75.595236 0 0 0 -3.5e-4,106.90765 75.595236,75.595236 0 0 0 86.21023,14.58158 l -14.44967,-14.44967 a 56.696429,56.696429 0 0 1 -58.39688,-13.49559 56.696429,56.696429 0 0 1 0,-80.18065 56.696429,56.696429 0 0 1 80.18065,0 56.696429,56.696429 0 0 1 13.52263,58.42319 l 14.42081,14.42081 a 75.595236,75.595236 0 0 0 -14.57975,-86.20768 75.595236,75.595236 0 0 0 -106.90767,3.6e-4 z"
         style="fill:#000000;fill-opacity:1;stroke:none;stroke-width:4;stroke-miterlimit:4;stroke-dasharray:none;stroke-opacity:1" />
      <rect
         transform="rotate(-45)"
         y="102.80206"
         x="-267.69702"
         height="97.286842"
         width="15.139874"
         id="rect4664"
         style="fill:#000000;fill-opacity:1;stroke:none;stroke-width:4;stroke-miterlimit:4;stroke-dasharray:none;stroke-opacity:1" />
      <rect
         transform="rotate(-45)"
         y="102.76434"
         x="-332.72998"
         height="97.286842"
         width="15.139874"
         id="rect4664-4"
         style="fill:#000000;fill-opacity:1;stroke:none;stroke-width:4;stroke-miterlimit:4;stroke-dasharray:none;stroke-opacity:1" />
    </g>
    <g
       id="g4710"
       transform="matrix(0.39310682,0.39310682,-0.39310682,0.39310682,102.61021,373.71351)"
       style="fill:#790000;fill-opacity:1">
      <path
         inkscape:connector-curvature="0"
         id="path98-5"
         d="m -568.28884,126.35565 a 75.595237,75.595237 0 0 0 -3.4e-4,106.90765 75.595237,75.595237 0 0 0 86.21022,14.58158 l -14.44966,-14.44966 a 56.69643,56.69643 0 0 1 -58.39689,-13.4956 56.69643,56.69643 0 0 1 0,-80.18065 56.69643,56.69643 0 0 1 80.18065,0 56.69643,56.69643 0 0 1 13.52264,58.42319 l 14.42081,14.42081 a 75.595237,75.595237 0 0 0 -14.57976,-86.20768 75.595237,75.595237 0 0 0 -106.90767,3.6e-4 z"
         style="fill:#790000;fill-opacity:1;stroke:none;stroke-width:4;stroke-miterlimit:4;stroke-dasharray:none;stroke-opacity:1" />
      <rect
         transform="rotate(-45)"
         y="-185.98952"
         x="-466.24103"
         height="190.51718"
         width="15.139874"
         id="rect4664-0"
         style="fill:#790000;fill-opacity:1;stroke:none;stroke-width:5.59757614;stroke-miterlimit:4;stroke-dasharray:none;stroke-opacity:1" />
      <rect
         transform="rotate(-45)"
         y="-186.06339"
         x="-531.27399"
         height="190.51718"
         width="15.139874"
         id="rect4664-4-0"
         style="fill:#790000;fill-opacity:1;stroke:none;stroke-width:5.59757614;stroke-miterlimit:4;stroke-dasharray:none;stroke-opacity:1" />
    </g>
    <path
       style="fill:#000000;fill-opacity:1;stroke:#000000;stroke-width:0;stroke-miterlimit:4;stroke-dasharray:none;stroke-opacity:1"
       d="m -633.17768,-368.74457 a 52.313384,52.313384 0 0 0 -52.31328,52.3135 52.313384,52.313384 0 0 0 36.75177,49.82836 v 48.85125 h 8.27734 v -46.93238 -7.69861 a 44.698151,44.698151 0 0 1 -37.4138,-44.04862 44.698151,44.698151 0 0 1 44.69798,-44.69819 44.698151,44.698151 0 0 1 44.69822,44.69822 44.698151,44.698151 0 0 1 -37.41404,44.08596 v 7.65446 46.97651 h 8.27735 v -48.89901 a 52.313384,52.313384 0 0 0 36.752,-49.81793 52.313384,52.313384 0 0 0 -52.31353,-52.31352 z"
       id="rect4611-5"
       inkscape:connector-curvature="0" />
    <rect
       style="opacity:1;fill:#000000;fill-opacity:1;stroke:#000000;stroke-width:0;stroke-miterlimit:4;stroke-dasharray:none;stroke-opacity:1"
       id="rect4820"
       width="8.277338"
       height="12.26755"
       x="-648.7392"
       y="-217.75148" />
    <rect
       style="opacity:1;fill:#000000;fill-opacity:1;stroke:#000000;stroke-width:0;stroke-miterlimit:4;stroke-dasharray:none;stroke-opacity:1"
       id="rect4820-5"
       width="8.277338"
       height="12.26755"
       x="-625.89349"
       y="-217.73915" />
    <path
       style="fill:#000000;fill-opacity:1;stroke:#000000;stroke-width:0;stroke-miterlimit:4;stroke-dasharray:none;stroke-opacity:1"
       d="m -632.65245,-401.04171 a 86.007357,86.007357 0 0 0 -59.56123,25.1819 86.007357,86.007357 0 0 0 5.2e-4,121.6329 86.007357,86.007357 0 0 0 37.576,21.84982 v -13.08603 a 73.487311,73.487311 0 0 1 -28.72331,-17.61752 73.487311,73.487311 0 0 1 0,-103.92648 73.487311,73.487311 0 0 1 103.92699,0 73.487311,73.487311 0 0 1 7.75611,94.74719 l 8.89869,8.8987 23.77529,23.77528 9.62267,-9.62266 -26.0103,-26.01032 a 86.007357,86.007357 0 0 0 -15.18925,-100.64088 86.007357,86.007357 0 0 0 -62.07218,-25.1819 z m 43.99576,145.67481 a 73.487311,73.487311 0 0 1 -22.83116,10.89031 v 12.86896 a 86.007357,86.007357 0 0 0 19.92694,-7.41762 l 25.99842,25.99841 9.62267,-9.62269 -23.76755,-23.76701 z"
       id="rect4611-1"
       inkscape:connector-curvature="0" />
    <text
       xml:space="preserve"
       style="font-style:normal;font-weight:normal;font-size:211.66665649px;line-height:1.25;font-family:sans-serif;letter-spacing:0px;word-spacing:0px;fill:#000000;fill-opacity:1;stroke:none;stroke-width:0.26458332"
       x="-917.26898"
       y="-235.40089"
       id="text4872"><tspan
         sodipodi:role="line"
         id="tspan4870"
         x="-917.26898"
         y="-235.40089"
         style="stroke-width:0.26458332">M   LER</tspan></text>
    <g
       id="g4902"
       transform="translate(236.13656,189.77618)"
       inkscape:export-xdpi="96"
       inkscape:export-ydpi="96">
      <path
         inkscape:connector-curvature="0"
         id="rect4611-5-9"
         d="m -145.55802,-58.203496 a 52.313385,52.313385 0 0 0 -52.31328,52.3134995 52.313385,52.313385 0 0 0 36.75177,49.8283605 v 48.85125 h 8.27734 v -46.93238 -7.69861 a 44.698153,44.698153 0 0 1 -37.4138,-44.0486205 44.698153,44.698153 0 0 1 44.69798,-44.6981895 44.698153,44.698153 0 0 1 44.69822,44.6982195 44.698153,44.698153 0 0 1 -37.41404,44.0859605 v 7.65446 46.97651 h 8.27735 V 43.927954 A 52.313385,52.313385 0 0 0 -93.244482,-5.8899765 52.313385,52.313385 0 0 0 -145.55801,-58.203496 Z"
         style="fill:#000000;fill-opacity:1;stroke:#000000;stroke-width:0;stroke-miterlimit:4;stroke-dasharray:none;stroke-opacity:1" />
      <rect
         y="92.789597"
         x="-161.11952"
         height="12.267551"
         width="8.277338"
         id="rect4820-55"
         style="opacity:1;fill:#000000;fill-opacity:1;stroke:#000000;stroke-width:0;stroke-miterlimit:4;stroke-dasharray:none;stroke-opacity:1" />
      <rect
         y="92.801926"
         x="-138.27382"
         height="12.267551"
         width="8.277338"
         id="rect4820-5-1"
         style="opacity:1;fill:#000000;fill-opacity:1;stroke:#000000;stroke-width:0;stroke-miterlimit:4;stroke-dasharray:none;stroke-opacity:1" />
      <path
         inkscape:connector-curvature="0"
         id="rect4611-1-0"
         d="m -145.03279,-90.500636 a 86.007358,86.007358 0 0 0 -59.56123,25.1819 86.007358,86.007358 0 0 0 5.3e-4,121.6329 86.007358,86.007358 0 0 0 37.576,21.84982 v -13.08603 a 73.487312,73.487312 0 0 1 -28.72331,-17.61752 73.487312,73.487312 0 0 1 0,-103.92648 73.487312,73.487312 0 0 1 103.926978,0 73.487312,73.487312 0 0 1 7.75611,94.74719 l 8.8987,8.8987 23.77529,23.77528 9.62267,-9.62266 -26.01031,-26.01032 a 86.007358,86.007358 0 0 0 -15.18925,-100.64088 86.007358,86.007358 0 0 0 -62.072178,-25.1819 z m 43.99576,145.67481 a 73.487312,73.487312 0 0 1 -22.83116,10.89031 v 12.86896 a 86.007358,86.007358 0 0 0 19.92694,-7.41762 l 25.998418,25.99841 9.62267,-9.62269 -23.76755,-23.76701 z"
         style="fill:#000000;fill-opacity:1;stroke:#000000;stroke-width:0;stroke-miterlimit:4;stroke-dasharray:none;stroke-opacity:1" />
    </g>
  </g>
</svg>
