<?xml version="1.0" encoding="UTF-8"?>
<!-- Created with Inkscape (http://www.inkscape.org/) -->
<svg width="200mm" height="200mm" version="1.1" viewBox="0 0 200 200" xmlns="http://www.w3.org/2000/svg" xmlns:cc="http://creativecommons.org/ns#" xmlns:dc="http://purl.org/dc/elements/1.1/" xmlns:rdf="http://www.w3.org/1999/02/22-rdf-syntax-ns#">
 <metadata>
  <rdf:RDF>
   <cc:Work rdf:about="">
    <dc:format>image/svg+xml</dc:format>
    <dc:type rdf:resource="http://purl.org/dc/dcmitype/StillImage"/>
    <dc:title/>
   </cc:Work>
  </rdf:RDF>
 </metadata>
 <g transform="translate(0,-97)">
  <path d="m250.67 361.38a94.294 94.294 0 0 0 2.9e-4 133.35 94.294 94.294 0 0 0 110.35 16.667l62.263 62.263 10.55-10.55-69.63-69.63a80.568 80.568 0 0 1-103.83-8.4564 80.568 80.568 0 0 1-3e-4 -113.94 80.568 80.568 0 0 1 113.94 1e-5 80.568 80.568 0 0 1 8.5037 103.88l69.63 69.63 10.55-10.55-62.324-62.324a94.294 94.294 0 0 0-16.653-110.34 94.294 94.294 0 0 0-133.35 0z" stroke="#000" stroke-width="7.8947"/>
  <g>
   <path d="m-223.66 190.2a75.595 75.595 0 0 0-3.5e-4 106.91 75.595 75.595 0 0 0 86.21 14.582l-14.45-14.45a56.696 56.696 0 0 1-58.397-13.496 56.696 56.696 0 0 1 0-80.181 56.696 56.696 0 0 1 80.181 0 56.696 56.696 0 0 1 13.523 58.423l14.421 14.421a75.595 75.595 0 0 0-14.58-86.208 75.595 75.595 0 0 0-106.91 3.6e-4z"/>
   <rect transform="rotate(-45)" x="-267.7" y="102.8" width="15.14" height="97.287"/>
   <rect transform="rotate(-45)" x="-332.73" y="102.76" width="15.14" height="97.287"/>
  </g>
  <g transform="matrix(.39311 .39311 -.39311 .39311 102.61 373.71)" fill="#790000">
   <path d="m-568.29 126.36a75.595 75.595 0 0 0-3.4e-4 106.91 75.595 75.595 0 0 0 86.21 14.582l-14.45-14.45a56.696 56.696 0 0 1-58.397-13.496 56.696 56.696 0 0 1 0-80.181 56.696 56.696 0 0 1 80.181 0 56.696 56.696 0 0 1 13.523 58.423l14.421 14.421a75.595 75.595 0 0 0-14.58-86.208 75.595 75.595 0 0 0-106.91 3.6e-4z"/>
   <rect transform="rotate(-45)" x="-466.24" y="-185.99" width="15.14" height="190.52"/>
   <rect transform="rotate(-45)" x="-531.27" y="-186.06" width="15.14" height="190.52"/>
  </g>
  <g>
   <g stroke-width="0">
    <path d="m87.281 131.83a52.313 52.313 0 0 0-52.313 52.314 52.313 52.313 0 0 0 36.752 49.828v48.851h8.2773v-54.631a44.698 44.698 0 0 1-37.414-44.049 44.698 44.698 0 0 1 44.698-44.698 44.698 44.698 0 0 1 44.698 44.698 44.698 44.698 0 0 1-37.414 44.086v54.631h8.2773v-48.899a52.313 52.313 0 0 0 36.752-49.818 52.313 52.313 0 0 0-52.314-52.314z"/>
    <rect x="71.72" y="282.82" width="8.2773" height="37.189"/>
    <rect x="94.565" y="282.86" width="8.2773" height="37.189"/>
   </g>
   <path d="m87.806 99.531a86.007 86.007 0 0 0-59.561 25.182 86.007 86.007 0 0 0 4.84e-4 121.63 86.007 86.007 0 0 0 37.576 21.85v-13.086a73.487 73.487 0 0 1-28.723-17.617 73.487 73.487 0 0 1 0-103.93 73.487 73.487 0 0 1 103.93 0 73.487 73.487 0 0 1 7.756 94.747l63.511 63.511 9.6231-9.6226-56.847-56.847a86.007 86.007 0 0 0-15.19-100.64 86.007 86.007 0 0 0-62.072-25.182zm43.996 145.67a73.487 73.487 0 0 1-22.831 10.89v12.869a86.007 86.007 0 0 0 19.927-7.4176l56.792 56.792 9.6231-9.6226-54.561-54.561z" stroke="#000" stroke-width="7.2009"/>
  </g>
 </g>
</svg>
