<?xml version="1.0" encoding="UTF-8"?>
<!-- Created with Inkscape (http://www.inkscape.org/) -->
<svg width="200mm" height="200mm" version="1.1" viewBox="0 0 200 200" xmlns="http://www.w3.org/2000/svg" xmlns:cc="http://creativecommons.org/ns#" xmlns:dc="http://purl.org/dc/elements/1.1/" xmlns:rdf="http://www.w3.org/1999/02/22-rdf-syntax-ns#">
 <metadata>
  <rdf:RDF>
   <cc:Work rdf:about="">
    <dc:format>image/svg+xml</dc:format>
    <dc:type rdf:resource="http://purl.org/dc/dcmitype/StillImage"/>
    <dc:title/>
   </cc:Work>
  </rdf:RDF>
 </metadata>
 <g transform="translate(0,-97)">
  <path d="m385.86 251.78a74.461 74.461 0 0 0-74.461 74.462 74.461 74.461 0 0 0 74.461 74.461 74.461 74.461 0 0 0 40.294-11.849l-19.2-19.2a49.431 49.431 0 0 1-57.848-8.7369 49.431 49.431 0 0 1 0-69.906 49.431 49.431 0 0 1 69.906 0 49.431 49.431 0 0 1 8.7302 57.841l19.513 19.513a74.461 74.461 0 0 0 13.067-42.124 74.461 74.461 0 0 0-74.462-74.462zm-1.1849 31.953a42.235 42.235 0 0 0-30.481 12.366 42.235 42.235 0 0 0 0 59.73 42.235 42.235 0 0 0 54.429 4.4328l23.941 23.941a74.461 74.461 0 0 0 9.8759-9.5917l-24.057-24.057a42.235 42.235 0 0 0-4.4581-54.454 42.235 42.235 0 0 0-29.248-12.366z" style="fill:none;stroke-width:2.6458;stroke:#000"/>
  <g>
   <path d="m-223.66 190.2a75.595 75.595 0 0 0-3.5e-4 106.91 75.595 75.595 0 0 0 86.21 14.582l-14.45-14.45a56.696 56.696 0 0 1-58.397-13.496 56.696 56.696 0 0 1 0-80.181 56.696 56.696 0 0 1 80.181 0 56.696 56.696 0 0 1 13.523 58.423l14.421 14.421a75.595 75.595 0 0 0-14.58-86.208 75.595 75.595 0 0 0-106.91 3.6e-4z"/>
   <rect transform="rotate(-45)" x="-267.7" y="102.8" width="15.14" height="97.287"/>
   <rect transform="rotate(-45)" x="-332.73" y="102.76" width="15.14" height="97.287"/>
  </g>
  <g transform="matrix(.39311 .39311 -.39311 .39311 102.61 373.71)" style="fill:#790000">
   <path d="m-568.29 126.36a75.595 75.595 0 0 0-3.4e-4 106.91 75.595 75.595 0 0 0 86.21 14.582l-14.45-14.45a56.696 56.696 0 0 1-58.397-13.496 56.696 56.696 0 0 1 0-80.181 56.696 56.696 0 0 1 80.181 0 56.696 56.696 0 0 1 13.523 58.423l14.421 14.421a75.595 75.595 0 0 0-14.58-86.208 75.595 75.595 0 0 0-106.91 3.6e-4z" style="fill:#790000"/>
   <rect transform="rotate(-45)" x="-466.24" y="-185.99" width="15.14" height="190.52" style="fill:#790000"/>
   <rect transform="rotate(-45)" x="-531.27" y="-186.06" width="15.14" height="190.52" style="fill:#790000"/>
  </g>
  <path d="m-633.18-368.74a52.313 52.313 0 0 0-52.313 52.314 52.313 52.313 0 0 0 36.752 49.828v48.851h8.2773v-54.631a44.698 44.698 0 0 1-37.414-44.049 44.698 44.698 0 0 1 44.698-44.698 44.698 44.698 0 0 1 44.698 44.698 44.698 44.698 0 0 1-37.414 44.086v54.631h8.2774v-48.899a52.313 52.313 0 0 0 36.752-49.818 52.313 52.313 0 0 0-52.314-52.314z" style="stroke-width:0"/>
  <rect x="-648.74" y="-217.75" width="8.2773" height="12.268" style="stroke-width:0"/>
  <rect x="-625.89" y="-217.74" width="8.2773" height="12.268" style="stroke-width:0"/>
  <path d="m-632.65-401.04a86.007 86.007 0 0 0-59.561 25.182 86.007 86.007 0 0 0 5.2e-4 121.63 86.007 86.007 0 0 0 37.576 21.85v-13.086a73.487 73.487 0 0 1-28.723-17.618 73.487 73.487 0 0 1 0-103.93 73.487 73.487 0 0 1 103.93 0 73.487 73.487 0 0 1 7.7561 94.747l32.674 32.674 9.6227-9.6227-26.01-26.01a86.007 86.007 0 0 0-15.189-100.64 86.007 86.007 0 0 0-62.072-25.182zm43.996 145.67a73.487 73.487 0 0 1-22.831 10.89v12.869a86.007 86.007 0 0 0 19.927-7.4176l25.998 25.998 9.6227-9.6227-23.768-23.767z" style="stroke-width:0"/>
  <text x="-917.26898" y="-235.40089" style="fill:#000000;font-family:sans-serif;font-size:211.67px;letter-spacing:0px;line-height:1.25;stroke-width:.26458;word-spacing:0px" xml:space="preserve"><tspan x="-917.26898" y="-235.40089" style="stroke-width:.26458">M   LER</tspan></text>
  <g transform="translate(236.14 189.78)">
   <path d="m-145.56-58.203a52.313 52.313 0 0 0-52.313 52.313 52.313 52.313 0 0 0 36.752 49.828v48.851h8.2773v-54.631a44.698 44.698 0 0 1-37.414-44.049 44.698 44.698 0 0 1 44.698-44.698 44.698 44.698 0 0 1 44.698 44.698 44.698 44.698 0 0 1-37.414 44.086v54.631h8.2774v-48.899a52.313 52.313 0 0 0 36.752-49.818 52.313 52.313 0 0 0-52.314-52.314z" style="stroke-width:0"/>
   <rect x="-161.12" y="92.79" width="8.2773" height="12.268" style="stroke-width:0"/>
   <rect x="-138.27" y="92.802" width="8.2773" height="12.268" style="stroke-width:0"/>
   <path d="m-145.03-90.501a86.007 86.007 0 0 0-59.561 25.182 86.007 86.007 0 0 0 5.3e-4 121.63 86.007 86.007 0 0 0 37.576 21.85v-13.086a73.487 73.487 0 0 1-28.723-17.618 73.487 73.487 0 0 1 0-103.93 73.487 73.487 0 0 1 103.93 0 73.487 73.487 0 0 1 7.7561 94.747l32.674 32.674 9.6227-9.6227-26.01-26.01a86.007 86.007 0 0 0-15.189-100.64 86.007 86.007 0 0 0-62.072-25.182zm43.996 145.67a73.487 73.487 0 0 1-22.831 10.89v12.869a86.007 86.007 0 0 0 19.927-7.4176l25.998 25.998 9.6227-9.6227-23.768-23.767z" style="stroke-width:0"/>
  </g>
 </g>
</svg>
