<svg id="Layer_1" data-name="Layer 1" xmlns="http://www.w3.org/2000/svg" viewBox="0 0 807 720">
  <path d="M127.58,282.28c16.5-5.71,35.24,2.6,46.83,15.65S192,328,197.7,344.44l19.84,57.27c7.77,22.44,19.24,43.66,35.12,61.32,8.59,9.55,18.49,18.23,30.24,23.43s25.57,6.63,37.49,1.82c11-4.42,22.44,3.19,29.29,12.82a37.51,37.51,0,0,1,4.68,33.81c-2.61,7.32-7.48,13.62-12.75,19.34-3.54,3.84-7.36,7.51-11.93,10-5.34,3-11.43,4.18-17.41,5.37l-.63-2.41c-13.81,4.1-28.33,7.88-42.55,5.59a66.23,66.23,0,0,1-20.88-7.62,106.8,106.8,0,0,1-53.62-75.82c-5.13-32.17-12.47-66.15-18.34-98.19-2.73-14.91-5.5-29.92-11.08-44C156.28,324.79,141.61,301.89,127.58,282.28Z" style="fill:#e3e3e3"/>
  <path d="M621.48,268.12c-17.48,3.57-35.6,7.42-49.89,18.11-22,16.46-30.17,45.31-35.31,72.29-1.88,9.82-3.54,19.77-3.13,29.75.85,20.26,10.15,40.6,4.84,60.17a42.69,42.69,0,0,1-31.87,30A244.67,244.67,0,0,1,460,483.13c-16.47.21-35.7-.37-46,12.48-10,12.52-5.17,32.29,6.52,43.28s28.09,15.18,43.88,18c8.79,1.57,17.72,2.85,26.61,2.12,12.34-1,24-5.88,35.42-10.67,9.43-4,17.83-10.15,25.67-16.72,23.33-19.57,34.16-50.56,37.61-80.82,1.82-15.9-1.07-32.34-9.22-46.11-3.41-5.76-7.63-11.1-10.09-17.33a56,56,0,0,1-3.15-14.68,152.78,152.78,0,0,1,1.12-40.3c2.16-13.36,12.65-27.57,22.49-36.86,2.6-2.44,5.42-4.63,8.23-6.81C606.38,283.05,614.17,273.79,621.48,268.12Z" style="fill:#e3e3e3"/>
  <path d="M300.39,224.94A441.52,441.52,0,0,1,457.6,81.12c39.31,36.24,58,94.84,43.79,146.39-7.47-3.81-15.2-8-22.67-11.78,14.2,40.52,9.74,86.23,1.45,128.36s-22.52,82.84-32.4,124.62c-6.4,27.11-1.17,55.21-12.54,81.77a151.89,151.89,0,0,1-8.07,15.5c-5.62,9.89-12.41,20.69-23.46,23.4-6.37,1.56-13.09.07-19.61.83-9.44,1.11-18.23,6.9-27.69,6-14.27-1.34-22.49-16.53-27.43-30-7.65-20.82-15.08-41.29-12.14-62.19,3.25-23.12,2.14-38.5-4.68-61.83-6.24-21.37-15.76-42.07-17.68-64.25-2.48-28.62-7.09-57.28-1-85.35,6.24-28.6,22.52-54.52,43.91-74.49C324.54,225.42,314.84,221.79,300.39,224.94Z" style="fill:#efefef"/>
  <path d="M425,490.76a79.52,79.52,0,0,1,52.66,13.1c11.05,7.48,21.61,18.27,34.94,17.83,7.59-.25,14.52-4.25,20.79-8.54a179.15,179.15,0,0,0,26-21.58c10.11-10.17,14.59-24.16,16.56-38.36s1.22-28.69,3.28-42.88c4.63-31.92,26.34-62.91,57.67-70.6a65.93,65.93,0,0,1,56.94,13.11C674,350.6,653.54,361.72,640,376.37s-21.5,33.58-27,52.72c-10.19,35.23-13,72.27-23.24,107.48s-30.06,70.21-63.1,86.12c-26.31,12.66-59.3,2.55-87.2-6.07-8.84-2.73-17.53-6.17-25.33-11.15a72.32,72.32,0,0,1-20.38-102.3C400.19,493.92,413.8,492,425,490.76Z" style="fill:#efefef"/>
  <path d="M81.31,374.85C97.1,361.42,120,353.3,138.73,362.09c12.46,5.83,20.79,18,26.8,30.33,11.09,22.85,16.29,48,21.38,72.93,3.49,17,10.34,33.7,21.19,47.27s28.43,23.14,45.46,19.7c16-3.25,27.77-16.73,42.4-24,19.31-9.64,44-7.37,61.23,5.63s26.18,36.12,22.21,57.33c-6.94,37.08-54.36,51.9-91.6,58-12.49,2-25.54,2.27-37.57-1.66a56.34,56.34,0,0,1-24.08-15.61c-16.37-18-34.51-34.46-44.62-56.63s-15.95-46-21.73-69.66c-6.21-25.39-15.27-50.92-29.56-72.8-4.09-6.26-8.42-12.45-13.85-17.61C106.94,386.25,93.27,380.08,81.31,374.85Z" style="fill:#efefef"/>
  <path d="M381.2,259.63c-5.86,3.83-11.92,7.85-15.55,13.83-4.36,7.17-4.59,16.06-4.21,24.44.24,5.17.68,10.47,2.92,15.14,3,6.24,8.94,10.72,15.49,12.92s13.65,2.27,20.5,1.37c2.47-.33,5.08-.85,6.92-2.54,13.11-12.1,14.7-34,5.69-49.39C406.58,264.48,391.79,252.71,381.2,259.63Z" style="fill:#c9c9c9"/>
  <path d="M331.77,260.13a38.81,38.81,0,0,0-11.49,9.53c-5.9,7.23-9,16.85-7.75,26.09s7.32,17.88,15.9,21.56,19.44,1.87,25.81-4.95c3.18-3.41,5.15-7.77,6.62-12.19,2.84-8.52,4-17.85,1.54-26.47a27.85,27.85,0,0,0-11.23-15.61C345,254.11,337.87,256.81,331.77,260.13Z" style="fill:#c9c9c9"/>
  <circle cx="335.31" cy="289.67" r="5.5" style="fill:#333"/>
  <circle cx="383.94" cy="294.54" r="5.5" style="fill:#333"/>
  <path d="M382.41,341.35c1.71,4.06-1.21,7.88-6.8,9.83s-13.55,2.1-21.14.78-14.76-4-19.56-7.62c-3-2.27-5.84-5.49-5.64-8,.32-4,1.61-3.27,8.74-2.51C352.46,335.38,368,338.91,382.41,341.35Z" style="fill:#c9c9c9"/>
  <path d="M382.7,339.64c1.08,7.64-2.57,15.59-8.66,20.33s-14.29,6.38-21.89,5.08a29.08,29.08,0,0,1-18.86-11.6c-2.74-3.91-5.09-9.73-4.47-14.6,1-7.93,2.21-6.65,9.42-6.38C352.86,333,368.24,337.31,382.7,339.64Z" style="fill:#c9c9c9"/>
</svg>
